<mxfile host="Electron" modified="2023-07-17T19:12:06.749Z" agent="Mozilla/5.0 (X11; Linux x86_64) AppleWebKit/537.36 (KHTML, like Gecko) draw.io/21.2.8 Chrome/112.0.5615.165 Electron/24.2.0 Safari/537.36" etag="QQTQbMHG8WcP4PS90IG3" version="21.2.8" type="device">
  <diagram id="403H1l-wbPHnGNBee5Wx" name="Page-1">
    <mxGraphModel dx="1434" dy="1239" grid="1" gridSize="10" guides="1" tooltips="1" connect="1" arrows="1" fold="1" page="0" pageScale="1" pageWidth="850" pageHeight="1100" math="0" shadow="0">
      <root>
        <mxCell id="0" />
        <mxCell id="1" parent="0" />
        <mxCell id="BF6-fNB6Nhh9qwT6eb9X-22" value="&lt;p style=&quot;line-height: 3600%;&quot;&gt;Availability zone&lt;/p&gt;" style="sketch=0;outlineConnect=0;gradientColor=none;html=1;whiteSpace=wrap;fontSize=12;fontStyle=0;shape=mxgraph.aws4.group;grIcon=mxgraph.aws4.group_availability_zone;strokeColor=#545B64;fillColor=none;verticalAlign=top;align=left;spacingLeft=30;fontColor=#545B64;dashed=1;shadow=0;direction=east;flipH=0;flipV=1;strokeWidth=2;" parent="1" vertex="1">
          <mxGeometry x="360" y="330" width="860" height="250" as="geometry" />
        </mxCell>
        <mxCell id="BF6-fNB6Nhh9qwT6eb9X-20" value="Availability zone" style="sketch=0;outlineConnect=0;gradientColor=none;html=1;whiteSpace=wrap;fontSize=12;fontStyle=0;shape=mxgraph.aws4.group;grIcon=mxgraph.aws4.group_availability_zone;strokeColor=#545B64;fillColor=none;verticalAlign=top;align=left;spacingLeft=30;fontColor=#545B64;dashed=1;strokeWidth=2;" parent="1" vertex="1">
          <mxGeometry x="360" y="-16" width="860" height="250" as="geometry" />
        </mxCell>
        <mxCell id="FeLqFCW-1yrMYsbDALeC-1" value="VPC" style="points=[[0,0],[0.25,0],[0.5,0],[0.75,0],[1,0],[1,0.25],[1,0.5],[1,0.75],[1,1],[0.75,1],[0.5,1],[0.25,1],[0,1],[0,0.75],[0,0.5],[0,0.25]];outlineConnect=0;gradientColor=none;html=1;whiteSpace=wrap;fontSize=12;fontStyle=0;container=1;pointerEvents=0;collapsible=0;recursiveResize=0;shape=mxgraph.aws4.group;grIcon=mxgraph.aws4.group_vpc;strokeColor=#248814;fillColor=none;verticalAlign=top;align=left;spacingLeft=30;fontColor=#AAB7B8;dashed=0;" parent="1" vertex="1">
          <mxGeometry x="121" y="-50" width="1179" height="650" as="geometry" />
        </mxCell>
        <mxCell id="FeLqFCW-1yrMYsbDALeC-20" value="public subnet" style="points=[[0,0],[0.25,0],[0.5,0],[0.75,0],[1,0],[1,0.25],[1,0.5],[1,0.75],[1,1],[0.75,1],[0.5,1],[0.25,1],[0,1],[0,0.75],[0,0.5],[0,0.25]];outlineConnect=0;gradientColor=none;html=1;whiteSpace=wrap;fontSize=12;fontStyle=0;container=1;pointerEvents=0;collapsible=0;recursiveResize=0;shape=mxgraph.aws4.group;grIcon=mxgraph.aws4.group_security_group;grStroke=0;strokeColor=#248814;fillColor=#E9F3E6;verticalAlign=top;align=left;spacingLeft=30;fontColor=#248814;dashed=0;" parent="FeLqFCW-1yrMYsbDALeC-1" vertex="1">
          <mxGeometry x="270" y="389" width="350" height="210" as="geometry" />
        </mxCell>
        <mxCell id="FeLqFCW-1yrMYsbDALeC-21" value="&lt;b&gt;Nat Gateway&lt;/b&gt;" style="sketch=0;outlineConnect=0;fontColor=#232F3E;gradientColor=none;fillColor=#4D27AA;strokeColor=none;dashed=0;verticalLabelPosition=bottom;verticalAlign=top;align=center;html=1;fontSize=12;fontStyle=0;aspect=fixed;pointerEvents=1;shape=mxgraph.aws4.nat_gateway;" parent="FeLqFCW-1yrMYsbDALeC-20" vertex="1">
          <mxGeometry x="280" y="10" width="60" height="60" as="geometry" />
        </mxCell>
        <mxCell id="zgObYyitofdoWYg5P6Fs-3" value="&lt;b&gt;ALB Node&lt;/b&gt;" style="sketch=0;outlineConnect=0;fontColor=#232F3E;gradientColor=none;fillColor=#4D27AA;strokeColor=none;dashed=0;verticalLabelPosition=bottom;verticalAlign=top;align=center;html=1;fontSize=12;fontStyle=0;aspect=fixed;pointerEvents=1;shape=mxgraph.aws4.application_load_balancer;" vertex="1" parent="FeLqFCW-1yrMYsbDALeC-20">
          <mxGeometry x="49" y="91" width="50" height="50" as="geometry" />
        </mxCell>
        <mxCell id="FeLqFCW-1yrMYsbDALeC-6" value="public subnet" style="points=[[0,0],[0.25,0],[0.5,0],[0.75,0],[1,0],[1,0.25],[1,0.5],[1,0.75],[1,1],[0.75,1],[0.5,1],[0.25,1],[0,1],[0,0.75],[0,0.5],[0,0.25]];outlineConnect=0;gradientColor=none;html=1;whiteSpace=wrap;fontSize=12;fontStyle=0;container=1;pointerEvents=0;collapsible=0;recursiveResize=0;shape=mxgraph.aws4.group;grIcon=mxgraph.aws4.group_security_group;grStroke=0;strokeColor=#248814;fillColor=#E9F3E6;verticalAlign=top;align=left;spacingLeft=30;fontColor=#248814;dashed=0;" parent="FeLqFCW-1yrMYsbDALeC-1" vertex="1">
          <mxGeometry x="270" y="85" width="350" height="195" as="geometry" />
        </mxCell>
        <mxCell id="FeLqFCW-1yrMYsbDALeC-11" value="&lt;b&gt;Nat Gateway&lt;/b&gt;" style="sketch=0;outlineConnect=0;fontColor=#232F3E;gradientColor=none;fillColor=#4D27AA;strokeColor=none;dashed=0;verticalLabelPosition=bottom;verticalAlign=top;align=center;html=1;fontSize=12;fontStyle=0;aspect=fixed;pointerEvents=1;shape=mxgraph.aws4.nat_gateway;" parent="FeLqFCW-1yrMYsbDALeC-6" vertex="1">
          <mxGeometry x="279" y="115" width="60" height="60" as="geometry" />
        </mxCell>
        <mxCell id="zgObYyitofdoWYg5P6Fs-2" value="&lt;b&gt;ALB Node&lt;/b&gt;" style="sketch=0;outlineConnect=0;fontColor=#232F3E;gradientColor=none;fillColor=#4D27AA;strokeColor=none;dashed=0;verticalLabelPosition=bottom;verticalAlign=top;align=center;html=1;fontSize=12;fontStyle=0;aspect=fixed;pointerEvents=1;shape=mxgraph.aws4.application_load_balancer;" vertex="1" parent="FeLqFCW-1yrMYsbDALeC-6">
          <mxGeometry x="49" y="49" width="50" height="50" as="geometry" />
        </mxCell>
        <mxCell id="zgObYyitofdoWYg5P6Fs-6" style="edgeStyle=orthogonalEdgeStyle;rounded=0;orthogonalLoop=1;jettySize=auto;html=1;" edge="1" parent="FeLqFCW-1yrMYsbDALeC-1" source="FeLqFCW-1yrMYsbDALeC-2" target="zgObYyitofdoWYg5P6Fs-2">
          <mxGeometry relative="1" as="geometry" />
        </mxCell>
        <mxCell id="zgObYyitofdoWYg5P6Fs-7" style="edgeStyle=orthogonalEdgeStyle;rounded=0;orthogonalLoop=1;jettySize=auto;html=1;" edge="1" parent="FeLqFCW-1yrMYsbDALeC-1" source="FeLqFCW-1yrMYsbDALeC-2" target="zgObYyitofdoWYg5P6Fs-3">
          <mxGeometry relative="1" as="geometry" />
        </mxCell>
        <mxCell id="FeLqFCW-1yrMYsbDALeC-2" value="&lt;b&gt;Internet facing ALB&lt;/b&gt;" style="sketch=0;outlineConnect=0;fontColor=#232F3E;gradientColor=none;fillColor=#4D27AA;strokeColor=none;dashed=0;verticalLabelPosition=bottom;verticalAlign=top;align=center;html=1;fontSize=12;fontStyle=0;aspect=fixed;pointerEvents=1;shape=mxgraph.aws4.application_load_balancer;" parent="FeLqFCW-1yrMYsbDALeC-1" vertex="1">
          <mxGeometry x="120" y="298" width="78" height="78" as="geometry" />
        </mxCell>
        <mxCell id="FeLqFCW-1yrMYsbDALeC-4" value="" style="edgeStyle=orthogonalEdgeStyle;rounded=0;orthogonalLoop=1;jettySize=auto;html=1;" parent="FeLqFCW-1yrMYsbDALeC-1" source="FeLqFCW-1yrMYsbDALeC-3" target="FeLqFCW-1yrMYsbDALeC-2" edge="1">
          <mxGeometry relative="1" as="geometry" />
        </mxCell>
        <mxCell id="FeLqFCW-1yrMYsbDALeC-3" value="&lt;b&gt;Internet gateway&lt;/b&gt;" style="sketch=0;outlineConnect=0;fontColor=#232F3E;gradientColor=none;fillColor=#4D27AA;strokeColor=none;dashed=0;verticalLabelPosition=bottom;verticalAlign=top;align=center;html=1;fontSize=12;fontStyle=0;aspect=fixed;pointerEvents=1;shape=mxgraph.aws4.internet_gateway;" parent="FeLqFCW-1yrMYsbDALeC-1" vertex="1">
          <mxGeometry x="-40" y="298" width="78" height="78" as="geometry" />
        </mxCell>
        <mxCell id="FeLqFCW-1yrMYsbDALeC-8" value="Private subnet" style="points=[[0,0],[0.25,0],[0.5,0],[0.75,0],[1,0],[1,0.25],[1,0.5],[1,0.75],[1,1],[0.75,1],[0.5,1],[0.25,1],[0,1],[0,0.75],[0,0.5],[0,0.25]];outlineConnect=0;gradientColor=none;html=1;whiteSpace=wrap;fontSize=12;fontStyle=0;container=1;pointerEvents=0;collapsible=0;recursiveResize=0;shape=mxgraph.aws4.group;grIcon=mxgraph.aws4.group_security_group;grStroke=0;strokeColor=#147EBA;fillColor=#E6F2F8;verticalAlign=top;align=left;spacingLeft=30;fontColor=#147EBA;dashed=0;" parent="FeLqFCW-1yrMYsbDALeC-1" vertex="1">
          <mxGeometry x="792" y="85" width="288" height="195" as="geometry" />
        </mxCell>
        <mxCell id="FeLqFCW-1yrMYsbDALeC-23" value="Private subnet" style="points=[[0,0],[0.25,0],[0.5,0],[0.75,0],[1,0],[1,0.25],[1,0.5],[1,0.75],[1,1],[0.75,1],[0.5,1],[0.25,1],[0,1],[0,0.75],[0,0.5],[0,0.25]];outlineConnect=0;gradientColor=none;html=1;whiteSpace=wrap;fontSize=12;fontStyle=0;container=1;pointerEvents=0;collapsible=0;recursiveResize=0;shape=mxgraph.aws4.group;grIcon=mxgraph.aws4.group_security_group;grStroke=0;strokeColor=#147EBA;fillColor=#E6F2F8;verticalAlign=top;align=left;spacingLeft=30;fontColor=#147EBA;dashed=0;" parent="FeLqFCW-1yrMYsbDALeC-1" vertex="1">
          <mxGeometry x="792" y="389" width="288" height="210" as="geometry" />
        </mxCell>
        <mxCell id="BF6-fNB6Nhh9qwT6eb9X-7" value="&lt;b&gt;Target group&lt;/b&gt;" style="rounded=0;whiteSpace=wrap;html=1;fillColor=none;dashed=1;labelPosition=center;verticalLabelPosition=bottom;align=center;verticalAlign=top;dashPattern=1 4;" parent="1" vertex="1">
          <mxGeometry x="940" y="70" width="100" height="431" as="geometry" />
        </mxCell>
        <mxCell id="zgObYyitofdoWYg5P6Fs-4" value="&lt;b&gt;Instance&lt;/b&gt;" style="sketch=0;points=[[0,0,0],[0.25,0,0],[0.5,0,0],[0.75,0,0],[1,0,0],[0,1,0],[0.25,1,0],[0.5,1,0],[0.75,1,0],[1,1,0],[0,0.25,0],[0,0.5,0],[0,0.75,0],[1,0.25,0],[1,0.5,0],[1,0.75,0]];outlineConnect=0;fontColor=#232F3E;gradientColor=#F78E04;gradientDirection=north;fillColor=#D05C17;strokeColor=#ffffff;dashed=0;verticalLabelPosition=bottom;verticalAlign=top;align=center;html=1;fontSize=12;fontStyle=0;aspect=fixed;shape=mxgraph.aws4.resourceIcon;resIcon=mxgraph.aws4.ec2;" vertex="1" parent="1">
          <mxGeometry x="960" y="94" width="60" height="60" as="geometry" />
        </mxCell>
        <mxCell id="zgObYyitofdoWYg5P6Fs-5" value="&lt;b&gt;Instance&lt;/b&gt;" style="sketch=0;points=[[0,0,0],[0.25,0,0],[0.5,0,0],[0.75,0,0],[1,0,0],[0,1,0],[0.25,1,0],[0.5,1,0],[0.75,1,0],[1,1,0],[0,0.25,0],[0,0.5,0],[0,0.75,0],[1,0.25,0],[1,0.5,0],[1,0.75,0]];outlineConnect=0;fontColor=#232F3E;gradientColor=#F78E04;gradientDirection=north;fillColor=#D05C17;strokeColor=#ffffff;dashed=0;verticalLabelPosition=bottom;verticalAlign=top;align=center;html=1;fontSize=12;fontStyle=0;aspect=fixed;shape=mxgraph.aws4.resourceIcon;resIcon=mxgraph.aws4.ec2;" vertex="1" parent="1">
          <mxGeometry x="960" y="400" width="60" height="60" as="geometry" />
        </mxCell>
        <mxCell id="zgObYyitofdoWYg5P6Fs-8" style="edgeStyle=orthogonalEdgeStyle;rounded=0;orthogonalLoop=1;jettySize=auto;html=1;entryX=-0.033;entryY=0.892;entryDx=0;entryDy=0;entryPerimeter=0;" edge="1" parent="1" source="zgObYyitofdoWYg5P6Fs-3" target="BF6-fNB6Nhh9qwT6eb9X-7">
          <mxGeometry relative="1" as="geometry" />
        </mxCell>
        <mxCell id="zgObYyitofdoWYg5P6Fs-10" style="edgeStyle=orthogonalEdgeStyle;rounded=0;orthogonalLoop=1;jettySize=auto;html=1;entryX=-0.009;entryY=0.091;entryDx=0;entryDy=0;entryPerimeter=0;" edge="1" parent="1" source="zgObYyitofdoWYg5P6Fs-2" target="BF6-fNB6Nhh9qwT6eb9X-7">
          <mxGeometry relative="1" as="geometry" />
        </mxCell>
      </root>
    </mxGraphModel>
  </diagram>
</mxfile>
